<mxfile host="Electron" agent="Mozilla/5.0 (Windows NT 10.0; Win64; x64) AppleWebKit/537.36 (KHTML, like Gecko) draw.io/28.0.6 Chrome/138.0.7204.100 Electron/37.2.3 Safari/537.36" version="28.0.6">
  <diagram name="Page-1" id="pDHJ-_u4TJypn5Mq4FoO">
    <mxGraphModel dx="1226" dy="736" grid="1" gridSize="10" guides="1" tooltips="1" connect="1" arrows="1" fold="1" page="1" pageScale="1" pageWidth="1100" pageHeight="850" math="0" shadow="0">
      <root>
        <mxCell id="0" />
        <mxCell id="1" parent="0" />
        <mxCell id="z5fTuwnyFHXw_86ia3H2-1" value="" style="rounded=0;whiteSpace=wrap;html=1;fillColor=none;dashed=1;strokeColor=light-dark(#adadad, #ededed);" parent="1" vertex="1">
          <mxGeometry x="40" y="110" width="160" height="570" as="geometry" />
        </mxCell>
        <mxCell id="z5fTuwnyFHXw_86ia3H2-2" value="&lt;b&gt;Source&lt;/b&gt;" style="rounded=0;whiteSpace=wrap;html=1;fillColor=default;strokeColor=none;fontSize=24;" parent="1" vertex="1">
          <mxGeometry x="80" y="100" width="80" height="20" as="geometry" />
        </mxCell>
        <mxCell id="z5fTuwnyFHXw_86ia3H2-3" value="" style="rounded=0;whiteSpace=wrap;html=1;fillColor=none;dashed=1;strokeColor=light-dark(#adadad, #ededed);" parent="1" vertex="1">
          <mxGeometry x="240" y="110" width="640" height="570" as="geometry" />
        </mxCell>
        <mxCell id="z5fTuwnyFHXw_86ia3H2-4" value="&lt;b&gt;Data Warehouse&lt;/b&gt;" style="rounded=0;whiteSpace=wrap;html=1;fillColor=default;strokeColor=none;fontSize=24;" parent="1" vertex="1">
          <mxGeometry x="460" y="95" width="200" height="30" as="geometry" />
        </mxCell>
        <mxCell id="z5fTuwnyFHXw_86ia3H2-5" value="" style="rounded=0;whiteSpace=wrap;html=1;fillColor=none;dashed=1;strokeColor=light-dark(#adadad, #ededed);" parent="1" vertex="1">
          <mxGeometry x="920" y="110" width="160" height="570" as="geometry" />
        </mxCell>
        <mxCell id="z5fTuwnyFHXw_86ia3H2-6" value="&lt;b&gt;Consumer&lt;/b&gt;" style="rounded=0;whiteSpace=wrap;html=1;fillColor=default;strokeColor=none;fontSize=24;" parent="1" vertex="1">
          <mxGeometry x="950" y="90" width="100" height="35" as="geometry" />
        </mxCell>
        <mxCell id="z5fTuwnyFHXw_86ia3H2-7" value="Bronze Layer" style="rounded=0;whiteSpace=wrap;html=1;fillColor=#ffe6cc;strokeColor=#d79b00;fontSize=20;fontStyle=1" parent="1" vertex="1">
          <mxGeometry x="280" y="130" width="160" height="30" as="geometry" />
        </mxCell>
        <mxCell id="z5fTuwnyFHXw_86ia3H2-8" value="Sliver Layer" style="rounded=0;whiteSpace=wrap;html=1;fillColor=#f5f5f5;strokeColor=#666666;fontSize=20;fontColor=#333333;fontStyle=1" parent="1" vertex="1">
          <mxGeometry x="480" y="130" width="160" height="30" as="geometry" />
        </mxCell>
        <mxCell id="z5fTuwnyFHXw_86ia3H2-9" value="Gold Layer" style="rounded=0;whiteSpace=wrap;html=1;fillColor=#fff2cc;strokeColor=#d6b656;fontSize=20;fontStyle=1" parent="1" vertex="1">
          <mxGeometry x="680" y="130" width="160" height="30" as="geometry" />
        </mxCell>
        <mxCell id="z5fTuwnyFHXw_86ia3H2-10" value="" style="rounded=0;whiteSpace=wrap;html=1;fillColor=none;strokeColor=#d79b00;fontSize=20;" parent="1" vertex="1">
          <mxGeometry x="280" y="170" width="160" height="470" as="geometry" />
        </mxCell>
        <mxCell id="z5fTuwnyFHXw_86ia3H2-11" value="" style="rounded=0;whiteSpace=wrap;html=1;fillColor=none;strokeColor=#666666;fontSize=20;fontColor=#333333;" parent="1" vertex="1">
          <mxGeometry x="480" y="170" width="160" height="470" as="geometry" />
        </mxCell>
        <mxCell id="z5fTuwnyFHXw_86ia3H2-12" value="" style="rounded=0;whiteSpace=wrap;html=1;fillColor=none;strokeColor=#d6b656;fontSize=20;" parent="1" vertex="1">
          <mxGeometry x="680" y="170" width="160" height="470" as="geometry" />
        </mxCell>
        <mxCell id="z5fTuwnyFHXw_86ia3H2-13" value="&lt;b&gt;CRM&lt;/b&gt;" style="image;aspect=fixed;html=1;points=[];align=center;fontSize=12;image=img/lib/azure2/general/Folder_Blank.svg;" parent="1" vertex="1">
          <mxGeometry x="89.19" y="210" width="61.61" height="50" as="geometry" />
        </mxCell>
        <mxCell id="z5fTuwnyFHXw_86ia3H2-14" value="&lt;b&gt;ERP&lt;/b&gt;" style="image;aspect=fixed;html=1;points=[];align=center;fontSize=12;image=img/lib/azure2/general/Folder_Blank.svg;" parent="1" vertex="1">
          <mxGeometry x="89.19" y="350" width="61.61" height="50" as="geometry" />
        </mxCell>
        <mxCell id="z5fTuwnyFHXw_86ia3H2-16" value="" style="image;aspect=fixed;html=1;points=[];align=center;fontSize=12;image=img/lib/azure2/general/File.svg;" parent="1" vertex="1">
          <mxGeometry x="135.65" y="240" width="24.35" height="30" as="geometry" />
        </mxCell>
        <mxCell id="z5fTuwnyFHXw_86ia3H2-19" value="" style="image;aspect=fixed;html=1;points=[];align=center;fontSize=12;image=img/lib/azure2/general/File.svg;" parent="1" vertex="1">
          <mxGeometry x="135.65" y="380" width="24.35" height="30" as="geometry" />
        </mxCell>
        <mxCell id="z5fTuwnyFHXw_86ia3H2-26" value="" style="endArrow=none;html=1;rounded=0;fillColor=#f5f5f5;strokeColor=#666666;entryX=0.917;entryY=-0.04;entryDx=0;entryDy=0;entryPerimeter=0;" parent="1" edge="1">
          <mxGeometry width="50" height="50" relative="1" as="geometry">
            <mxPoint x="49.980000000000004" y="430.85" as="sourcePoint" />
            <mxPoint x="190.01999999999995" y="430.0000000000001" as="targetPoint" />
          </mxGeometry>
        </mxCell>
        <mxCell id="z5fTuwnyFHXw_86ia3H2-27" value="&lt;font&gt;&lt;b style=&quot;&quot;&gt;Objective Type: &lt;/b&gt;CSV Files&lt;/font&gt;&lt;div&gt;&lt;font&gt;&lt;br&gt;&lt;/font&gt;&lt;div&gt;&lt;font&gt;&lt;b style=&quot;&quot;&gt;Intererface:&lt;/b&gt; Files in Folder&lt;/font&gt;&lt;/div&gt;&lt;/div&gt;" style="text;html=1;align=left;verticalAlign=middle;whiteSpace=wrap;rounded=0;" parent="1" vertex="1">
          <mxGeometry x="45" y="430" width="150" height="90" as="geometry" />
        </mxCell>
        <mxCell id="z5fTuwnyFHXw_86ia3H2-30" value="" style="html=1;verticalLabelPosition=bottom;align=center;labelBackgroundColor=#ffffff;verticalAlign=top;strokeWidth=2;strokeColor=#d79b00;shadow=0;dashed=0;shape=mxgraph.ios7.icons.data;fillColor=#ffe6cc;" parent="1" vertex="1">
          <mxGeometry x="330" y="260" width="55" height="60" as="geometry" />
        </mxCell>
        <mxCell id="z5fTuwnyFHXw_86ia3H2-33" value="" style="shape=singleArrow;whiteSpace=wrap;html=1;fillColor=#b1ddf0;strokeColor=#10739e;" parent="1" vertex="1">
          <mxGeometry x="190" y="290" width="100" height="35" as="geometry" />
        </mxCell>
        <mxCell id="z5fTuwnyFHXw_86ia3H2-35" value="" style="shape=singleArrow;whiteSpace=wrap;html=1;fillColor=#b1ddf0;strokeColor=#10739e;" parent="1" vertex="1">
          <mxGeometry x="430" y="295" width="60" height="25" as="geometry" />
        </mxCell>
        <mxCell id="z5fTuwnyFHXw_86ia3H2-36" value="" style="shape=singleArrow;whiteSpace=wrap;html=1;fillColor=#b1ddf0;strokeColor=#10739e;" parent="1" vertex="1">
          <mxGeometry x="630" y="295" width="60" height="25" as="geometry" />
        </mxCell>
        <mxCell id="z5fTuwnyFHXw_86ia3H2-38" value="" style="shape=singleArrow;whiteSpace=wrap;html=1;fillColor=#b1ddf0;strokeColor=#10739e;" parent="1" vertex="1">
          <mxGeometry x="830" y="295" width="100" height="35" as="geometry" />
        </mxCell>
        <mxCell id="z5fTuwnyFHXw_86ia3H2-39" value="" style="html=1;verticalLabelPosition=bottom;align=center;labelBackgroundColor=#ffffff;verticalAlign=top;strokeWidth=2;strokeColor=#666666;shadow=0;dashed=0;shape=mxgraph.ios7.icons.data;fillColor=#f5f5f5;fontColor=#333333;" parent="1" vertex="1">
          <mxGeometry x="530" y="260" width="55" height="60" as="geometry" />
        </mxCell>
        <mxCell id="z5fTuwnyFHXw_86ia3H2-40" value="" style="html=1;verticalLabelPosition=bottom;align=center;labelBackgroundColor=#ffffff;verticalAlign=top;strokeWidth=2;strokeColor=#d6b656;shadow=0;dashed=0;shape=mxgraph.ios7.icons.data;fillColor=#fff2cc;" parent="1" vertex="1">
          <mxGeometry x="740" y="260" width="55" height="60" as="geometry" />
        </mxCell>
        <mxCell id="z5fTuwnyFHXw_86ia3H2-41" value="&lt;b&gt;&lt;font&gt;Raw Data&lt;/font&gt;&lt;/b&gt;" style="text;html=1;align=center;verticalAlign=middle;whiteSpace=wrap;rounded=0;" parent="1" vertex="1">
          <mxGeometry x="330" y="320" width="60" height="30" as="geometry" />
        </mxCell>
        <mxCell id="z5fTuwnyFHXw_86ia3H2-42" value="&lt;b&gt;&lt;font&gt;Cleaned, Standardized Data&lt;/font&gt;&lt;/b&gt;" style="text;html=1;align=center;verticalAlign=middle;whiteSpace=wrap;rounded=0;" parent="1" vertex="1">
          <mxGeometry x="490" y="330" width="140" height="30" as="geometry" />
        </mxCell>
        <mxCell id="z5fTuwnyFHXw_86ia3H2-43" value="&lt;b&gt;&lt;font&gt;Business-Ready Data&lt;/font&gt;&lt;/b&gt;" style="text;html=1;align=center;verticalAlign=middle;whiteSpace=wrap;rounded=0;" parent="1" vertex="1">
          <mxGeometry x="690" y="330" width="140" height="30" as="geometry" />
        </mxCell>
        <mxCell id="z5fTuwnyFHXw_86ia3H2-47" value="" style="endArrow=none;html=1;rounded=0;entryX=0.875;entryY=0.526;entryDx=0;entryDy=0;entryPerimeter=0;fillColor=#f5f5f5;strokeColor=#666666;" parent="1" edge="1">
          <mxGeometry width="50" height="50" relative="1" as="geometry">
            <mxPoint x="514.98" y="370" as="sourcePoint" />
            <mxPoint x="620" y="370" as="targetPoint" />
            <Array as="points">
              <mxPoint x="500" y="370" />
              <mxPoint x="524.98" y="370" />
            </Array>
          </mxGeometry>
        </mxCell>
        <mxCell id="z5fTuwnyFHXw_86ia3H2-48" value="" style="endArrow=none;html=1;rounded=0;entryX=0.875;entryY=0.526;entryDx=0;entryDy=0;entryPerimeter=0;fillColor=#fff2cc;strokeColor=#d6b656;" parent="1" edge="1">
          <mxGeometry width="50" height="50" relative="1" as="geometry">
            <mxPoint x="714.98" y="370" as="sourcePoint" />
            <mxPoint x="820" y="370" as="targetPoint" />
            <Array as="points">
              <mxPoint x="700" y="370" />
              <mxPoint x="724.98" y="370" />
            </Array>
          </mxGeometry>
        </mxCell>
        <mxCell id="z5fTuwnyFHXw_86ia3H2-49" value="&lt;font style=&quot;font-size: 11px;&quot;&gt;&lt;b style=&quot;&quot;&gt;Objective Type: &lt;/b&gt;Tables&lt;br&gt;&lt;/font&gt;&lt;div&gt;&lt;font style=&quot;font-size: 11px;&quot;&gt;&lt;br&gt;&lt;/font&gt;&lt;div&gt;&lt;font style=&quot;font-size: 11px;&quot;&gt;&lt;b&gt;Load:&lt;/b&gt;&lt;/font&gt;&lt;/div&gt;&lt;/div&gt;&lt;div&gt;&lt;ul&gt;&lt;li&gt;&lt;font style=&quot;font-size: 11px;&quot;&gt;Batch Process&lt;/font&gt;&lt;/li&gt;&lt;li&gt;&lt;font style=&quot;font-size: 11px;&quot;&gt;Full Load&amp;nbsp;&lt;/font&gt;&lt;/li&gt;&lt;li&gt;&lt;font style=&quot;font-size: 11px;&quot;&gt;Trunc &amp;amp; Insert&lt;/font&gt;&lt;/li&gt;&lt;/ul&gt;&lt;div&gt;&lt;font style=&quot;font-size: 11px;&quot;&gt;NO&lt;b&gt; Transformations&lt;/b&gt;&lt;/font&gt;&lt;/div&gt;&lt;/div&gt;&lt;div&gt;&lt;font style=&quot;font-size: 11px;&quot;&gt;&lt;font&gt;&lt;b style=&quot;&quot;&gt;Data Model: &lt;/b&gt;None (as-is&lt;/font&gt;&lt;font style=&quot;&quot;&gt;)&lt;/font&gt;&lt;/font&gt;&lt;/div&gt;" style="text;html=1;align=left;verticalAlign=middle;whiteSpace=wrap;rounded=0;" parent="1" vertex="1">
          <mxGeometry x="290" y="445" width="140" height="20" as="geometry" />
        </mxCell>
        <mxCell id="z5fTuwnyFHXw_86ia3H2-57" value="&lt;font style=&quot;font-size: 11px;&quot;&gt;&lt;b style=&quot;&quot;&gt;Objective Type: &lt;/b&gt;Tables&lt;/font&gt;&lt;div&gt;&lt;font style=&quot;font-size: 11px;&quot;&gt;&lt;br&gt;&lt;/font&gt;&lt;/div&gt;&lt;div&gt;&lt;b&gt;&lt;font style=&quot;font-size: 11px;&quot;&gt;Load:&lt;/font&gt;&lt;/b&gt;&lt;/div&gt;&lt;div&gt;&lt;ul&gt;&lt;li&gt;&lt;font style=&quot;font-size: 11px;&quot;&gt;Batch Process&lt;/font&gt;&lt;/li&gt;&lt;li&gt;&lt;font style=&quot;font-size: 11px;&quot;&gt;Full Load&lt;/font&gt;&lt;/li&gt;&lt;li&gt;&lt;font style=&quot;font-size: 11px;&quot;&gt;Trunc &amp;amp; Insert&lt;/font&gt;&lt;/li&gt;&lt;/ul&gt;&lt;div&gt;&lt;b&gt;&lt;font style=&quot;font-size: 11px;&quot;&gt;Transformations:&lt;/font&gt;&lt;/b&gt;&lt;/div&gt;&lt;/div&gt;&lt;div&gt;&lt;ul&gt;&lt;li&gt;&lt;font style=&quot;font-size: 11px;&quot;&gt;Data Cleaning&lt;/font&gt;&lt;/li&gt;&lt;li&gt;&lt;font style=&quot;font-size: 11px;&quot;&gt;Data Standrization&lt;/font&gt;&lt;/li&gt;&lt;li&gt;&lt;font style=&quot;font-size: 11px;&quot;&gt;Data Normalization&lt;/font&gt;&lt;/li&gt;&lt;li&gt;&lt;font style=&quot;font-size: 11px;&quot;&gt;Derived Columns&lt;/font&gt;&lt;/li&gt;&lt;li&gt;&lt;font style=&quot;font-size: 11px;&quot;&gt;Data Enrichment&lt;/font&gt;&lt;/li&gt;&lt;/ul&gt;&lt;div&gt;&lt;font style=&quot;font-size: 11px;&quot;&gt;&lt;b style=&quot;&quot;&gt;Data Model: &lt;/b&gt;None (as-is)&lt;/font&gt;&lt;/div&gt;&lt;/div&gt;" style="text;html=1;align=left;verticalAlign=middle;whiteSpace=wrap;rounded=0;" parent="1" vertex="1">
          <mxGeometry x="490" y="420" width="140" height="170" as="geometry" />
        </mxCell>
        <mxCell id="z5fTuwnyFHXw_86ia3H2-58" value="" style="endArrow=none;html=1;rounded=0;entryX=0.875;entryY=0.526;entryDx=0;entryDy=0;entryPerimeter=0;fillColor=#ffe6cc;strokeColor=#d79b00;" parent="1" edge="1">
          <mxGeometry width="50" height="50" relative="1" as="geometry">
            <mxPoint x="312.48" y="370" as="sourcePoint" />
            <mxPoint x="417.5" y="370" as="targetPoint" />
            <Array as="points">
              <mxPoint x="297.5" y="370" />
              <mxPoint x="322.48" y="370" />
            </Array>
          </mxGeometry>
        </mxCell>
        <mxCell id="z5fTuwnyFHXw_86ia3H2-59" value="&lt;font style=&quot;font-size: 11px;&quot;&gt;&lt;b style=&quot;&quot;&gt;Objective Type: &lt;/b&gt;Views&lt;/font&gt;&lt;div&gt;&lt;font style=&quot;font-size: 11px;&quot;&gt;&lt;br&gt;&lt;/font&gt;&lt;/div&gt;&lt;div&gt;&lt;font style=&quot;font-size: 11px;&quot;&gt;No &lt;b&gt;Load&lt;/b&gt;&lt;/font&gt;&lt;/div&gt;&lt;div&gt;&lt;div&gt;&lt;b&gt;&lt;font style=&quot;font-size: 11px;&quot;&gt;Transformations:&lt;/font&gt;&lt;/b&gt;&lt;/div&gt;&lt;/div&gt;&lt;div&gt;&lt;ul&gt;&lt;li&gt;&lt;font style=&quot;font-size: 11px;&quot;&gt;Data Integrations&lt;/font&gt;&lt;/li&gt;&lt;li&gt;&lt;font style=&quot;font-size: 11px;&quot;&gt;Aggregations&lt;/font&gt;&lt;/li&gt;&lt;li&gt;&lt;font style=&quot;font-size: 11px;&quot;&gt;Business Logics&lt;/font&gt;&lt;/li&gt;&lt;/ul&gt;&lt;div&gt;&lt;font style=&quot;font-size: 11px;&quot;&gt;&lt;b style=&quot;&quot;&gt;Data Model:&amp;nbsp;&lt;/b&gt;&lt;/font&gt;&lt;/div&gt;&lt;/div&gt;&lt;div&gt;&lt;ul&gt;&lt;li&gt;&lt;font style=&quot;font-size: 11px;&quot;&gt;Star Schema&lt;/font&gt;&lt;/li&gt;&lt;li&gt;&lt;font style=&quot;font-size: 11px;&quot;&gt;Flat Table&lt;/font&gt;&lt;/li&gt;&lt;li&gt;&lt;font style=&quot;font-size: 11px;&quot;&gt;Aggregate Table&lt;/font&gt;&lt;/li&gt;&lt;/ul&gt;&lt;/div&gt;" style="text;html=1;align=left;verticalAlign=middle;whiteSpace=wrap;rounded=0;" parent="1" vertex="1">
          <mxGeometry x="690" y="400" width="140" height="170" as="geometry" />
        </mxCell>
        <mxCell id="z5fTuwnyFHXw_86ia3H2-60" value="&lt;b&gt;BI &amp;amp; Reporting&lt;/b&gt;" style="image;aspect=fixed;html=1;points=[];align=center;fontSize=12;image=img/lib/azure2/power_platform/PowerBI.svg;" parent="1" vertex="1">
          <mxGeometry x="974.5" y="252" width="51" height="68" as="geometry" />
        </mxCell>
        <mxCell id="z5fTuwnyFHXw_86ia3H2-66" value="Machine Learning" style="sketch=0;points=[[0,0,0],[0.25,0,0],[0.5,0,0],[0.75,0,0],[1,0,0],[0,1,0],[0.25,1,0],[0.5,1,0],[0.75,1,0],[1,1,0],[0,0.25,0],[0,0.5,0],[0,0.75,0],[1,0.25,0],[1,0.5,0],[1,0.75,0]];outlineConnect=0;fontColor=#232F3E;fillColor=#01A88D;strokeColor=#ffffff;dashed=0;verticalLabelPosition=bottom;verticalAlign=top;align=center;html=1;fontSize=12;fontStyle=0;aspect=fixed;shape=mxgraph.aws4.resourceIcon;resIcon=mxgraph.aws4.machine_learning;" parent="1" vertex="1">
          <mxGeometry x="961" y="520" width="78" height="78" as="geometry" />
        </mxCell>
        <mxCell id="z5fTuwnyFHXw_86ia3H2-67" value="Ad - Hoc&lt;div&gt;SQL Queries&lt;/div&gt;" style="sketch=0;points=[[0,0,0],[0.25,0,0],[0.5,0,0],[0.75,0,0],[1,0,0],[0,1,0],[0.25,1,0],[0.5,1,0],[0.75,1,0],[1,1,0],[0,0.25,0],[0,0.5,0],[0,0.75,0],[1,0.25,0],[1,0.5,0],[1,0.75,0]];outlineConnect=0;fontColor=#232F3E;fillColor=#8C4FFF;strokeColor=#ffffff;dashed=0;verticalLabelPosition=bottom;verticalAlign=top;align=center;html=1;fontSize=12;fontStyle=0;aspect=fixed;shape=mxgraph.aws4.resourceIcon;resIcon=mxgraph.aws4.sql_workbench;" parent="1" vertex="1">
          <mxGeometry x="961" y="370" width="78" height="78" as="geometry" />
        </mxCell>
        <mxCell id="z5fTuwnyFHXw_86ia3H2-68" value="&lt;b&gt;&lt;font style=&quot;font-size: 30px;&quot;&gt;High Level Data Architecture&lt;/font&gt;&lt;/b&gt;" style="text;html=1;whiteSpace=wrap;overflow=hidden;rounded=0;" parent="1" vertex="1">
          <mxGeometry x="40" width="440" height="50" as="geometry" />
        </mxCell>
      </root>
    </mxGraphModel>
  </diagram>
</mxfile>
